<svg xmlns="http://www.w3.org/2000/svg" width="600" height="600" viewBox="0 0 600 600" version="1.1"><path d="M 291 6.566 C 289.075 6.783, 282.100 7.439, 275.500 8.025 C 234.455 11.665, 200.286 21.269, 164.516 39.221 C 100.608 71.293, 49.011 131.141, 32.571 192.263 C 27.415 211.432, 26.566 218.848, 26.533 245 C 26.507 266.290, 26.794 271.007, 28.726 281 C 34.717 311.982, 46.987 336.518, 66.832 357.193 C 79.129 370.004, 89.529 377.773, 103.371 384.489 C 120.018 392.566, 137.304 397.480, 156.250 399.524 C 159.817 399.908, 162 400.614, 162 401.381 C 162 402.061, 157.933 421.941, 152.962 445.559 C 147.992 469.177, 139.629 509.866, 134.379 535.980 C 129.129 562.094, 124.634 583.784, 124.389 584.180 C 124.144 584.576, 124.903 585.413, 126.076 586.041 C 128.371 587.269, 203.244 587.092, 204.479 585.855 C 205.055 585.278, 214.271 543.019, 218.295 522.500 C 219.158 518.100, 221.038 509.100, 222.472 502.500 C 223.906 495.900, 227.295 479.925, 230.003 467 C 237.912 429.254, 244.118 400.549, 244.440 400.227 C 244.604 400.062, 254.810 399.763, 267.119 399.562 C 300.013 399.024, 320.316 395.844, 342.500 387.755 C 367.506 378.638, 385.676 367.315, 403.009 350.045 C 423.985 329.147, 436.172 307.160, 440.484 282.433 C 445.083 256.059, 442.171 232.238, 431.834 211.671 C 426.847 201.751, 423.551 197.188, 415.225 188.677 C 400.048 173.165, 380.961 164.476, 353 160.351 C 344.787 159.139, 329.271 158.689, 281.771 158.286 C 248.369 158.002, 219.469 158.065, 217.548 158.425 C 213.378 159.207, 213.915 157.588, 206.976 190.294 C 204.267 203.057, 199.542 225.200, 196.474 239.500 C 191.236 263.911, 179 322.827, 179 323.633 C 179 323.835, 176.891 324, 174.314 324 C 167.339 324, 157.553 321.311, 148 316.769 C 141.030 313.455, 137.958 311.177, 130.934 304.114 C 115.434 288.527, 109.511 271.580, 109.578 243 C 109.619 225.100, 111.257 215.053, 116.494 200.588 C 122.591 183.742, 131.417 168.960, 144.387 153.869 C 156.102 140.238, 178.211 123.811, 197 114.777 C 227.025 100.341, 262.105 93.534, 306 93.626 C 340.299 93.698, 364.331 97.006, 387.958 104.905 C 426.881 117.919, 456.001 141.986, 472.401 174.696 C 487.074 203.960, 490.684 239.632, 482.895 278.380 C 475.138 316.968, 454.292 352.174, 418.875 386.500 C 390.934 413.580, 365.981 434.238, 313.426 473.799 C 295.785 487.078, 278.405 500.643, 274.804 503.943 C 266.436 511.610, 257.968 522.683, 254.038 531.094 C 247.798 544.451, 246.412 561.379, 250.756 571.167 C 252.955 576.120, 259.315 582.269, 264.464 584.421 C 272.764 587.889, 281.643 588.102, 405 587.799 C 525.825 587.502, 526.525 587.488, 531 585.410 C 536.320 582.940, 542.304 576.638, 543.888 571.839 C 544.509 569.957, 546.341 560.910, 547.959 551.734 C 550.610 536.694, 550.774 534.564, 549.617 530.105 C 547.951 523.680, 545.858 520.596, 540.969 517.361 C 534.681 513.199, 525.498 512.797, 456 513.642 C 421.625 514.060, 391.250 514.423, 388.500 514.451 C 381.354 514.521, 382.012 512.719, 391.500 506.235 C 445.501 469.327, 475.246 443.412, 506.116 406.376 C 530.530 377.086, 549.794 343.155, 560.549 310.500 C 575.155 266.155, 575.714 213.924, 562.070 168.325 C 547.991 121.271, 516.932 81.748, 469.500 50.530 C 439.731 30.938, 399.072 15.967, 361 10.581 C 339.147 7.490, 301.812 5.349, 291 6.566 M 279.610 231.748 C 279.145 233.297, 275.694 248.584, 262.546 307.347 C 260.596 316.063, 259 323.376, 259 323.597 C 259 324.433, 290.876 323.941, 299.500 322.973 C 339.609 318.468, 363.938 297.514, 363.988 267.432 C 364.013 252.570, 359.008 243.831, 346.963 237.703 C 336.986 232.627, 328.292 231.252, 301.802 230.561 C 281.741 230.038, 280.097 230.126, 279.610 231.748" stroke="none" fill="currentColor" fill-rule="evenodd"/></svg>